<svg width="563" height="158" viewBox="0 0 563 158" fill="none" xmlns="http://www.w3.org/2000/svg">
<path d="M125.216 71.2646C125.497 73.8301 123.378 75.9296 120.797 75.9296H37.5294C34.9485 75.9296 32.8293 73.8301 33.1104 71.2646C35.5488 49.0111 55.2369 31.6657 79.1632 31.6657C103.089 31.6657 122.778 49.0111 125.216 71.2646Z" fill="#FFAF26"/>
<path d="M21.0392 82.3502C23.0544 82.3503 24.6466 83.9834 24.7677 85.9537C26.4533 113.379 50.4996 134.602 79.2013 134.602C107.903 134.602 131.949 113.379 133.635 85.9537C133.756 83.9834 135.348 82.3502 137.363 82.3502H148.214C150.588 82.3502 152.491 84.3418 152.234 86.7021C148.239 123.409 117.077 152 79.2003 152.001C41.323 152.001 10.1607 123.409 6.16566 86.7021C5.90878 84.3418 7.81122 82.3502 10.1854 82.3502H21.0392ZM113.024 124.091C113.338 123.859 113.649 123.622 113.958 123.383C113.649 123.622 113.338 123.859 113.024 124.091ZM114.273 123.136C114.479 122.974 114.686 122.812 114.89 122.647C114.686 122.812 114.479 122.974 114.273 123.136ZM115.212 122.382C115.415 122.216 115.616 122.049 115.817 121.88C115.616 122.049 115.415 122.216 115.212 122.382ZM116.132 121.612C116.332 121.44 116.532 121.267 116.73 121.092C116.532 121.267 116.332 121.44 116.132 121.612ZM117.051 120.807C117.199 120.674 117.347 120.54 117.494 120.405C117.347 120.54 117.199 120.674 117.051 120.807ZM117.764 120.155C117.901 120.027 118.037 119.9 118.173 119.771C118.037 119.9 117.901 120.027 117.764 120.155ZM118.608 119.352C118.694 119.269 118.78 119.186 118.865 119.102C118.78 119.186 118.694 119.269 118.608 119.352ZM128.637 105.911L128.919 105.359C128.935 105.328 128.949 105.296 128.965 105.264C128.857 105.48 128.748 105.696 128.637 105.911ZM129.623 103.898C129.432 104.31 129.237 104.719 129.035 105.125C129.237 104.719 129.432 104.31 129.623 103.898ZM129.676 103.783C129.778 103.561 129.88 103.339 129.979 103.116C129.979 103.116 129.979 103.116 129.979 103.116C129.979 103.116 129.978 103.115 129.978 103.116C129.879 103.339 129.778 103.561 129.676 103.783ZM131.078 100.418C131.174 100.16 131.27 99.903 131.362 99.6441C131.27 99.903 131.174 100.16 131.078 100.418ZM131.959 97.8648L132.144 97.2652C132.169 97.1821 132.192 97.0985 132.217 97.0152C132.133 97.2994 132.048 97.5827 131.959 97.8648ZM132.249 96.9039C132.331 96.6225 132.412 96.3405 132.489 96.0572C132.489 96.0572 132.489 96.0572 132.489 96.0572C132.489 96.057 132.489 96.057 132.489 96.0571C132.412 96.3404 132.331 96.6225 132.249 96.9039ZM134.194 85.6246C134.188 85.6608 134.184 85.6974 134.179 85.7339C134.184 85.6974 134.188 85.6608 134.194 85.6246ZM130.702 101.395L130.93 100.815C130.962 100.732 130.991 100.649 131.023 100.566C130.918 100.843 130.812 101.12 130.702 101.395Z" fill="#549464"/>
<path d="M77.2556 123.858C77.2556 125.625 75.7842 127.049 74.0262 126.864C66.8101 126.103 60.0935 123.758 54.2656 120.2C53.3728 119.655 52.8518 118.672 52.8518 117.626V116.748C52.8518 115.314 54.0142 114.151 55.448 114.151H74.1402C75.8608 114.151 77.2556 115.546 77.2556 117.267V123.858Z" fill="#E9652C"/>
<path d="M105.475 117.62C105.475 118.666 104.954 119.648 104.062 120.193C98.2344 123.753 91.5177 126.1 84.3012 126.862C82.543 127.048 81.0712 125.624 81.0712 123.856V117.267C81.0712 115.546 82.466 114.151 84.1866 114.151H102.879C104.313 114.151 105.475 115.314 105.475 116.748V117.62Z" fill="#E9652C"/>
<path d="M62.4028 107.22C62.4028 108.941 61.008 110.336 59.2874 110.336H44.3066C43.3792 110.336 42.4949 109.926 41.9267 109.193C40.21 106.979 38.7043 104.605 37.4383 102.101C36.6105 100.463 37.8586 98.612 39.6935 98.612H59.2874C61.008 98.612 62.4028 100.007 62.4028 101.727V107.22Z" fill="#E9652C"/>
<path d="M92.1083 107.22C92.1083 108.941 90.7135 110.336 88.993 110.336H69.3333C67.6127 110.336 66.2179 108.941 66.2179 107.22V101.727C66.2179 100.007 67.6127 98.612 69.3333 98.612H88.993C90.7135 98.612 92.1083 100.007 92.1083 101.727V107.22Z" fill="#E9652C"/>
<path d="M118.622 98.612C120.457 98.612 121.705 100.463 120.877 102.101C119.611 104.605 118.106 106.979 116.389 109.193C115.821 109.926 114.936 110.336 114.009 110.336H99.0393C97.3187 110.336 95.924 108.941 95.924 107.22V101.727C95.924 100.007 97.3187 98.612 99.0393 98.612H118.622Z" fill="#E9652C"/>
<path d="M47.9977 91.6816C47.9977 93.4021 46.6029 94.7969 44.8824 94.7969H36.8882C35.504 94.7969 34.2741 93.8861 33.9598 92.5381C33.4628 90.4066 33.1264 88.2172 32.9638 85.9821C32.8389 84.266 34.2457 82.8694 35.9663 82.8694H44.8824C46.6029 82.8694 47.9977 84.2642 47.9977 85.9848V91.6816Z" fill="#E9652C"/>
<path d="M77.2556 91.6816C77.2556 93.4021 75.8608 94.7969 74.1402 94.7969H54.9287C53.2082 94.7969 51.8134 93.4021 51.8134 91.6816V85.9848C51.8134 84.2642 53.2082 82.8694 54.9287 82.8694H74.1402C75.8608 82.8694 77.2556 84.2642 77.2556 85.9848V91.6816Z" fill="#E9652C"/>
<path d="M106.513 91.6816C106.513 93.4021 105.119 94.7969 103.398 94.7969H84.1866C82.466 94.7969 81.0712 93.4021 81.0712 91.6816V85.9848C81.0712 84.2642 82.466 82.8694 84.1866 82.8694H103.398C105.119 82.8694 106.513 84.2642 106.513 85.9848V91.6816Z" fill="#E9652C"/>
<path d="M122.349 82.8694C124.07 82.8694 125.477 84.266 125.352 85.9821C125.189 88.2172 124.853 90.4066 124.356 92.5381C124.041 93.8861 122.812 94.7969 121.427 94.7969H113.444C111.723 94.7969 110.328 93.4021 110.328 91.6816V85.9848C110.328 84.2642 111.723 82.8694 113.444 82.8694H122.349Z" fill="#E9652C"/>
<path d="M142.308 50.6192C144.423 49.5171 147.041 50.4152 147.891 52.6437C150.193 58.6812 151.718 65.1003 152.345 71.7792C152.565 74.1205 150.67 76.0731 148.319 76.0731H137.414C135.458 76.0729 133.792 74.6322 133.542 72.6902C133.284 70.6971 132.925 68.7274 132.457 66.7733C132.455 66.7666 132.457 66.7596 132.462 66.7547C132.467 66.7498 132.469 66.7431 132.467 66.7364C132.121 65.3011 131.239 62.6852 130.49 60.576C129.833 58.7357 130.639 56.6992 132.368 55.7986L142.308 50.6192ZM26.0234 55.7596C27.7653 56.6679 28.5739 58.7192 27.8994 60.5594C27.2406 62.3515 26.6679 64.1834 26.1972 66.0302C26.1967 66.0321 26.1982 66.034 26.2001 66.034C26.2021 66.034 26.2036 66.0358 26.2031 66.0377C25.8188 67.5423 25.3722 70.4133 25.0429 72.7137C24.7683 74.6401 23.1121 76.0731 21.1582 76.0731H10.0805C7.72886 76.0731 5.83445 74.1205 6.05428 71.7792C6.68205 65.093 8.21006 58.6671 10.5164 52.6239C11.366 50.3974 13.9809 49.4992 16.0953 50.5984L26.0234 55.7596ZM40.8759 35.4344C42.0659 36.9961 41.9264 39.2017 40.5498 40.5828C39.2121 41.9326 37.9359 43.337 36.7382 44.8123C36.1938 45.4794 35.1283 46.9625 34.164 48.3514C33.0441 49.9601 30.9131 50.4863 29.1865 49.576L19.2137 44.3403C17.1285 43.2456 16.3603 40.6308 17.6505 38.6606C20.6753 34.0412 24.2085 29.7831 28.1708 25.9653C29.8889 24.31 32.6409 24.6097 34.0859 26.5081C36.4338 29.5926 38.8992 32.8348 40.8759 35.4344ZM124.312 26.5135C125.756 24.6122 128.511 24.3103 130.231 25.9672C134.197 29.7892 137.733 34.0526 140.76 38.6778C142.048 40.6472 141.281 43.26 139.198 44.3546C135.692 46.196 131.884 48.1954 129.278 49.5672C127.559 50.4781 125.429 49.9838 124.316 48.3738C122.397 45.5961 120.229 42.9905 117.852 40.5968C117.848 40.5927 117.843 40.5893 117.838 40.5867C117.833 40.5841 117.828 40.5807 117.824 40.5766C116.461 39.1939 116.346 36.991 117.526 35.4383C119.479 32.8734 121.969 29.5971 124.312 26.5135ZM97.6734 12.2494C98.1835 9.92905 100.536 8.49735 102.787 9.25812C108.083 11.0481 113.107 13.4244 117.783 16.309C119.79 17.5476 120.202 20.2469 118.773 22.1234C116.43 25.1985 114.025 28.3585 111.805 31.2752C110.619 32.8317 108.466 33.295 106.781 32.3045C105.324 31.4484 103.828 30.6549 102.3 29.9321C102.299 29.9314 102.297 29.9326 102.297 29.9344C102.297 29.9362 102.295 29.9374 102.293 29.9367C101.387 29.504 99.479 28.7659 97.6484 28.0906C95.8154 27.4145 94.7623 25.4727 95.1835 23.5545C95.8361 20.5999 96.7974 16.2348 97.6734 12.2494ZM63.2138 23.4373C63.6351 25.3438 62.6046 27.2969 60.7705 27.9559C59.2172 28.5208 57.6871 29.1492 56.1884 29.8475L55.8115 30.0311C54.8009 30.5385 53.1754 31.4444 51.6933 32.3026C49.9995 33.2833 47.8446 32.8522 46.6582 31.2908C44.8158 28.8792 42.1203 25.3511 39.6468 22.1117C38.2145 20.2359 38.6267 17.5352 40.6357 16.2967C45.3124 13.4135 50.3377 11.0389 55.6343 9.25057C57.8834 8.49115 60.2346 9.92104 60.7456 12.2393L63.2138 23.4373ZM79.2001 5.39825C82.0218 5.39827 84.8063 5.55739 87.545 5.86657C89.9026 6.13273 91.4266 8.42147 90.9103 10.7372C90.0346 14.6655 89.0774 18.9631 88.4267 21.869C88.0027 23.7643 86.2354 25.0981 84.288 24.9188C82.5997 24.7706 80.9031 24.6922 79.207 24.6922H79.1914C78.1155 24.6922 76.0034 24.8409 74.1503 24.9969C72.1873 25.1607 70.4123 23.858 69.9882 21.9549C69.3228 18.9625 68.3676 14.6851 67.486 10.7356C66.9692 8.42055 68.4928 6.1328 70.8499 5.86669C73.5903 5.5573 76.3766 5.39827 79.2001 5.39825Z" fill="#FFAF26"/>
<path d="M561.885 83.8844C562.437 83.8844 562.885 84.3321 562.885 84.8844V124.517C562.885 125.069 562.437 125.517 561.885 125.517H554.819C554.49 125.517 554.182 125.355 553.996 125.084L539.266 103.712C538.709 102.904 537.443 103.298 537.443 104.279V124.517C537.443 125.069 536.995 125.517 536.443 125.517H528.861C528.308 125.517 527.861 125.069 527.861 124.517V84.8844C527.861 84.3321 528.308 83.8844 528.861 83.8844H535.926C536.255 83.8844 536.563 84.0461 536.75 84.3169L551.479 105.689C552.036 106.498 553.303 106.103 553.303 105.122V84.8844C553.303 84.3321 553.75 83.8844 554.303 83.8844H561.885Z" fill="black"/>
<path d="M511.691 104.701C511.691 102.982 511.405 101.396 510.832 99.9426C510.259 98.4887 509.466 97.2332 508.453 96.1758C507.484 95.1185 506.338 94.3035 505.017 93.7308C503.695 93.114 502.285 92.8056 500.787 92.8056C499.289 92.8056 497.88 93.114 496.558 93.7308C495.236 94.3035 494.069 95.1185 493.056 96.1758C492.086 97.2332 491.315 98.4887 490.743 99.9426C490.17 101.396 489.884 102.982 489.884 104.701C489.884 106.419 490.17 108.005 490.743 109.458C491.315 110.912 492.086 112.168 493.056 113.225C494.069 114.283 495.236 115.12 496.558 115.736C497.88 116.309 499.289 116.595 500.787 116.595C502.285 116.595 503.695 116.309 505.017 115.736C506.338 115.12 507.484 114.283 508.453 113.225C509.466 112.168 510.259 110.912 510.832 109.458C511.405 108.005 511.691 106.419 511.691 104.701ZM521.273 104.701C521.273 107.696 520.722 110.472 519.621 113.027C518.564 115.582 517.11 117.829 515.259 119.767C513.409 121.662 511.228 123.16 508.717 124.261C506.25 125.318 503.607 125.847 500.787 125.847C497.968 125.847 495.302 125.318 492.791 124.261C490.324 123.16 488.165 121.662 486.315 119.767C484.465 117.829 482.989 115.582 481.888 113.027C480.83 110.472 480.302 107.696 480.302 104.701C480.302 101.749 480.83 98.9954 481.888 96.4402C482.989 93.8409 484.465 91.5941 486.315 89.6997C488.165 87.7613 490.324 86.2634 492.791 85.2061C495.302 84.1047 497.968 83.554 500.787 83.554C503.607 83.554 506.25 84.1047 508.717 85.2061C511.228 86.2634 513.409 87.7613 515.259 89.6997C517.11 91.5941 518.564 93.8409 519.621 96.4402C520.722 98.9954 521.273 101.749 521.273 104.701Z" fill="black"/>
<path d="M473.716 124.517C473.716 125.069 473.269 125.517 472.716 125.517H465.134C464.582 125.517 464.134 125.069 464.134 124.517V84.8844C464.134 84.3321 464.582 83.8844 465.134 83.8844H472.716C473.269 83.8844 473.716 84.3321 473.716 84.8844V124.517Z" fill="black"/>
<path d="M446.927 124.517C446.927 125.069 446.479 125.517 445.927 125.517H438.345C437.793 125.517 437.345 125.069 437.345 124.517V94.136C437.345 93.5837 436.897 93.136 436.345 93.136H426.45C425.898 93.136 425.45 92.6883 425.45 92.136V84.8844C425.45 84.3321 425.898 83.8844 426.45 83.8844H457.822C458.374 83.8844 458.822 84.3321 458.822 84.8844V92.136C458.822 92.6883 458.374 93.136 457.822 93.136H447.927C447.375 93.136 446.927 93.5837 446.927 94.136V124.517Z" fill="black"/>
<path d="M410.529 109.326C411.211 109.326 411.693 108.658 411.477 108.01L408.239 98.295C407.935 97.3833 406.645 97.3833 406.342 98.295L403.103 108.01C402.887 108.658 403.369 109.326 404.052 109.326H410.529ZM400.742 117.587C400.311 117.587 399.929 117.862 399.793 118.27L397.606 124.833C397.47 125.241 397.088 125.517 396.657 125.517H388.884C388.193 125.517 387.71 124.832 387.943 124.18L402.097 84.5481C402.239 84.1501 402.616 83.8844 403.039 83.8844H411.542C411.964 83.8844 412.341 84.1501 412.484 84.5481L426.638 124.18C426.87 124.832 426.388 125.517 425.696 125.517H417.923C417.493 125.517 417.111 125.241 416.975 124.833L414.787 118.27C414.651 117.862 414.269 117.587 413.839 117.587H400.742Z" fill="black"/>
<path d="M365.619 116.265C367.205 116.265 368.681 115.979 370.047 115.406C371.413 114.789 372.602 113.974 373.615 112.961C374.629 111.948 375.422 110.736 375.994 109.326C376.567 107.917 376.853 106.375 376.853 104.701C376.853 103.07 376.567 101.551 375.994 100.141C375.422 98.687 374.629 97.4534 373.615 96.4402C372.602 95.4269 371.413 94.6339 370.047 94.0612C368.681 93.4444 367.205 93.136 365.619 93.136H361.993C361.441 93.136 360.993 93.5837 360.993 94.136V115.265C360.993 115.817 361.441 116.265 361.993 116.265H365.619ZM351.411 84.8844C351.411 84.3321 351.859 83.8844 352.411 83.8844H365.619C368.527 83.8844 371.236 84.4351 373.747 85.5365C376.259 86.5938 378.461 88.0697 380.356 89.964C382.25 91.8584 383.726 94.0612 384.783 96.5723C385.885 99.0835 386.435 101.793 386.435 104.701C386.435 107.608 385.885 110.318 384.783 112.829C383.726 115.34 382.25 117.543 380.356 119.437C378.461 121.331 376.259 122.829 373.747 123.931C371.236 124.988 368.527 125.517 365.619 125.517H352.411C351.859 125.517 351.411 125.069 351.411 124.517V84.8844Z" fill="black"/>
<path d="M341.795 83.8844C342.347 83.8844 342.795 84.3321 342.795 84.8844V124.517C342.795 125.069 342.347 125.517 341.795 125.517H334.729C334.4 125.517 334.093 125.355 333.906 125.084L319.176 103.712C318.619 102.904 317.353 103.298 317.353 104.279V124.517C317.353 125.069 316.905 125.517 316.353 125.517H308.771C308.219 125.517 307.771 125.069 307.771 124.517V84.8844C307.771 84.3321 308.219 83.8844 308.771 83.8844H315.836C316.165 83.8844 316.473 84.0461 316.66 84.3169L331.389 105.689C331.946 106.498 333.213 106.103 333.213 105.122V84.8844C333.213 84.3321 333.661 83.8844 334.213 83.8844H341.795Z" fill="black"/>
<path d="M274.052 83.8844C274.604 83.8844 275.052 84.3321 275.052 84.8844V108.666C275.052 111.177 275.735 113.137 277.101 114.547C278.466 115.913 280.317 116.595 282.652 116.595C284.987 116.595 286.837 115.913 288.203 114.547C289.568 113.137 290.251 111.177 290.251 108.666V84.8844C290.251 84.3321 290.699 83.8844 291.251 83.8844H298.833C299.385 83.8844 299.833 84.3321 299.833 84.8844V108.666C299.833 111.221 299.415 113.556 298.578 115.67C297.741 117.785 296.573 119.591 295.075 121.089C293.577 122.587 291.771 123.754 289.656 124.591C287.542 125.429 285.207 125.847 282.652 125.847C280.096 125.847 277.761 125.429 275.647 124.591C273.532 123.754 271.726 122.587 270.228 121.089C268.73 119.591 267.563 117.785 266.726 115.67C265.889 113.556 265.47 111.221 265.47 108.666V84.8844C265.47 84.3321 265.918 83.8844 266.47 83.8844H274.052Z" fill="black"/>
<path d="M249.961 104.701C249.961 102.982 249.675 101.396 249.102 99.9426C248.529 98.4887 247.736 97.2332 246.723 96.1758C245.754 95.1185 244.608 94.3035 243.287 93.7308C241.965 93.114 240.555 92.8056 239.058 92.8056C237.56 92.8056 236.15 93.114 234.828 93.7308C233.507 94.3035 232.339 95.1185 231.326 96.1758C230.357 97.2332 229.586 98.4887 229.013 99.9426C228.44 101.396 228.154 102.982 228.154 104.701C228.154 106.419 228.44 108.005 229.013 109.458C229.586 110.912 230.357 112.168 231.326 113.225C232.339 114.283 233.507 115.12 234.828 115.736C236.15 116.309 237.56 116.595 239.058 116.595C240.555 116.595 241.965 116.309 243.287 115.736C244.608 115.12 245.754 114.283 246.723 113.225C247.736 112.168 248.529 110.912 249.102 109.458C249.675 108.005 249.961 106.419 249.961 104.701ZM259.543 104.701C259.543 107.696 258.993 110.472 257.891 113.027C256.834 115.582 255.38 117.829 253.53 119.767C251.679 121.662 249.499 123.16 246.987 124.261C244.52 125.318 241.877 125.847 239.058 125.847C236.238 125.847 233.573 125.318 231.061 124.261C228.594 123.16 226.436 121.662 224.585 119.767C222.735 117.829 221.259 115.582 220.158 113.027C219.1 110.472 218.572 107.696 218.572 104.701C218.572 101.749 219.1 98.9954 220.158 96.4402C221.259 93.8409 222.735 91.5941 224.585 89.6997C226.436 87.7613 228.594 86.2634 231.061 85.2061C233.573 84.1047 236.238 83.554 239.058 83.554C241.877 83.554 244.52 84.1047 246.987 85.2061C249.499 86.2634 251.679 87.7613 253.53 89.6997C255.38 91.5941 256.834 93.8409 257.891 96.4402C258.993 98.9954 259.543 101.749 259.543 104.701Z" fill="black"/>
<path d="M186.852 84.8844C186.852 84.3321 187.3 83.8844 187.852 83.8844H214.598C215.15 83.8844 215.598 84.3321 215.598 84.8844V92.136C215.598 92.6883 215.15 93.136 214.598 93.136H197.434C196.882 93.136 196.434 93.5837 196.434 94.136V100.727C196.434 101.279 196.882 101.727 197.434 101.727H210.964C211.516 101.727 211.964 102.175 211.964 102.727V109.978C211.964 110.531 211.516 110.978 210.964 110.978H197.434C196.882 110.978 196.434 111.426 196.434 111.978V124.517C196.434 125.069 195.986 125.517 195.434 125.517H187.852C187.3 125.517 186.852 125.069 186.852 124.517V84.8844Z" fill="black"/>
<path d="M490.552 31.8844C492.711 31.8844 494.671 32.2368 496.434 32.9417C498.24 33.6466 499.782 34.5938 501.059 35.7833C502.337 36.9728 503.328 38.3826 504.033 40.0126C504.738 41.5986 505.09 43.2947 505.09 45.101C505.09 47.4359 504.672 49.3964 503.835 50.9824C503.042 52.5684 502.139 53.868 501.125 54.8813C500.156 55.8505 499.253 56.5554 498.416 56.9959C498.297 57.0585 498.187 57.1167 498.084 57.1704C497.581 57.4356 497.4 58.0672 497.687 58.559L505.535 72.0128C505.924 72.6794 505.443 73.5167 504.671 73.5167H496.431C496.066 73.5167 495.73 73.3174 495.554 72.997L488.524 60.1589C488.348 59.8385 488.012 59.6392 487.647 59.6392H484.283C483.731 59.6392 483.283 60.087 483.283 60.6392V72.5167C483.283 73.0689 482.835 73.5167 482.283 73.5167H474.701C474.149 73.5167 473.701 73.0689 473.701 72.5167V32.8844C473.701 32.3321 474.149 31.8844 474.701 31.8844H490.552ZM490.552 50.3876C492.226 50.3876 493.526 49.9471 494.451 49.066C495.376 48.1849 495.839 47.0835 495.839 45.7618C495.839 44.4402 495.376 43.3388 494.451 42.4577C493.526 41.5766 492.226 41.136 490.552 41.136H484.283C483.731 41.136 483.283 41.5837 483.283 42.136V49.3876C483.283 49.9399 483.731 50.3876 484.283 50.3876H490.552Z" fill="black"/>
<path d="M452.829 57.3263C453.512 57.3263 453.994 56.6576 453.778 56.0101L450.54 46.295C450.236 45.3833 448.946 45.3833 448.642 46.295L445.404 56.0101C445.188 56.6576 445.67 57.3263 446.353 57.3263H452.829ZM443.043 65.5867C442.612 65.5867 442.23 65.8621 442.094 66.2705L439.907 72.8329C439.77 73.2412 439.388 73.5167 438.958 73.5167H431.185C430.494 73.5167 430.011 72.8316 430.243 72.1803L444.398 32.5481C444.54 32.1501 444.917 31.8844 445.34 31.8844H453.843C454.265 31.8844 454.642 32.1501 454.784 32.5481L468.939 72.1803C469.171 72.8316 468.688 73.5167 467.997 73.5167H460.224C459.794 73.5167 459.412 73.2412 459.276 72.8329L457.088 66.2705C456.952 65.8621 456.57 65.5867 456.139 65.5867H443.043Z" fill="black"/>
<path d="M400.359 32.8844C400.359 32.3321 400.807 31.8844 401.359 31.8844H408.941C409.494 31.8844 409.941 32.3321 409.941 32.8844V63.265C409.941 63.8173 410.389 64.265 410.941 64.265H427.775C428.327 64.265 428.775 64.7128 428.775 65.265V72.5167C428.775 73.0689 428.327 73.5167 427.775 73.5167H401.359C400.807 73.5167 400.359 73.0689 400.359 72.5167V32.8844Z" fill="black"/>
<path d="M384.19 52.7005C384.19 50.9824 383.903 49.3964 383.331 47.9426C382.758 46.4887 381.965 45.2332 380.952 44.1758C379.982 43.1185 378.837 42.3035 377.515 41.7308C376.194 41.114 374.784 40.8056 373.286 40.8056C371.788 40.8056 370.378 41.114 369.057 41.7308C367.735 42.3035 366.568 43.1185 365.554 44.1758C364.585 45.2332 363.814 46.4887 363.241 47.9426C362.669 49.3964 362.382 50.9824 362.382 52.7005C362.382 54.4187 362.669 56.0047 363.241 57.4585C363.814 58.9123 364.585 60.1679 365.554 61.2252C366.568 62.2826 367.735 63.1196 369.057 63.7364C370.378 64.3091 371.788 64.5955 373.286 64.5955C374.784 64.5955 376.194 64.3091 377.515 63.7364C378.837 63.1196 379.982 62.2826 380.952 61.2252C381.965 60.1679 382.758 58.9123 383.331 57.4585C383.903 56.0047 384.19 54.4187 384.19 52.7005ZM393.772 52.7005C393.772 55.6963 393.221 58.4718 392.12 61.027C391.062 63.5822 389.608 65.829 387.758 67.7674C385.908 69.6618 383.727 71.1597 381.216 72.2611C378.749 73.3184 376.105 73.8471 373.286 73.8471C370.466 73.8471 367.801 73.3184 365.29 72.2611C362.823 71.1597 360.664 69.6618 358.814 67.7674C356.963 65.829 355.488 63.5822 354.386 61.027C353.329 58.4718 352.8 55.6963 352.8 52.7005C352.8 49.7488 353.329 46.9954 354.386 44.4402C355.488 41.8409 356.963 39.5941 358.814 37.6997C360.664 35.7613 362.823 34.2634 365.29 33.2061C367.801 32.1047 370.466 31.554 373.286 31.554C376.105 31.554 378.749 32.1047 381.216 33.2061C383.727 34.2634 385.908 35.7613 387.758 37.6997C389.608 39.5941 391.062 41.8409 392.12 44.4402C393.221 46.9954 393.772 49.7488 393.772 52.7005Z" fill="black"/>
<path d="M317.75 43.4489C317.75 41.8629 318.081 40.365 318.742 38.9553C319.447 37.5015 320.438 36.2459 321.715 35.1885C322.993 34.0872 324.535 33.2061 326.341 32.5452C328.192 31.8844 330.284 31.554 332.619 31.554C334.866 31.554 336.87 31.8844 338.633 32.5452C340.439 33.2061 341.959 34.1312 343.192 35.3207C344.47 36.5102 345.439 37.92 346.1 39.55C346.688 40.8728 347.031 42.3027 347.128 43.84C347.161 44.3636 346.752 44.7995 346.229 44.8369L338.977 45.3549C338.398 45.3962 337.915 44.9353 337.836 44.3604C337.675 43.1926 337.235 42.25 336.518 41.5325C335.593 40.6074 334.293 40.1448 332.619 40.1448C331.121 40.1448 329.91 40.5633 328.985 41.4003C328.103 42.1933 327.663 43.0965 327.663 44.1097C327.663 45.123 328.17 45.894 329.183 46.4226C330.196 46.9513 331.452 47.4579 332.95 47.9426C334.491 48.3831 336.144 48.8677 337.906 49.3964C339.668 49.925 341.298 50.674 342.796 51.6432C344.338 52.6124 345.615 53.89 346.629 55.476C347.642 57.062 348.149 59.1106 348.149 61.6217C348.149 63.2958 347.796 64.8818 347.091 66.3797C346.43 67.8335 345.439 69.1111 344.118 70.2125C342.796 71.3139 341.166 72.195 339.227 72.8558C337.289 73.5167 335.086 73.8471 332.619 73.8471C330.24 73.8471 328.103 73.5167 326.209 72.8558C324.315 72.195 322.707 71.2698 321.385 70.0803C320.107 68.8468 319.116 67.415 318.411 65.785C317.855 64.3761 317.533 62.858 317.445 61.2308C317.417 60.7069 317.825 60.2711 318.349 60.2337L325.6 59.7158C326.179 59.6744 326.664 60.1355 326.732 60.7118C327.09 63.7415 329.053 65.2563 332.619 65.2563C334.469 65.2563 335.857 64.8378 336.782 64.0007C337.752 63.1196 338.236 62.1063 338.236 60.9609C338.236 59.9036 337.73 59.0885 336.716 58.5158C335.703 57.9431 334.425 57.4144 332.883 56.9298C331.386 56.4452 329.756 55.9386 327.993 55.4099C326.231 54.8813 324.579 54.1544 323.037 53.2292C321.539 52.26 320.284 51.0044 319.27 49.4625C318.257 47.9205 317.75 45.916 317.75 43.4489Z" fill="black"/>
<path d="M265.873 32.8844C265.873 32.3321 266.32 31.8844 266.873 31.8844H294.61C295.162 31.8844 295.61 32.3321 295.61 32.8844V40.136C295.61 40.6883 295.162 41.136 294.61 41.136H276.455C275.902 41.136 275.455 41.5837 275.455 42.136V46.7443C275.455 47.2966 275.902 47.7443 276.455 47.7443H292.958C293.51 47.7443 293.958 48.192 293.958 48.7443V55.9959C293.958 56.5482 293.51 56.9959 292.958 56.9959H276.455C275.902 56.9959 275.455 57.4436 275.455 57.9959V63.2651C275.455 63.8173 275.902 64.265 276.455 64.265H295.271C295.823 64.265 296.271 64.7128 296.271 65.265V72.5167C296.271 73.0689 295.823 73.5167 295.271 73.5167H266.873C266.32 73.5167 265.873 73.0689 265.873 72.5167V32.8844Z" fill="black"/>
<path d="M256.256 31.8844C256.808 31.8844 257.256 32.3321 257.256 32.8844V72.5167C257.256 73.0689 256.808 73.5167 256.256 73.5167H248.674C248.122 73.5167 247.674 73.0689 247.674 72.5167V57.9959C247.674 57.4436 247.226 56.9959 246.674 56.9959H232.814C232.262 56.9959 231.814 57.4436 231.814 57.9959V72.5167C231.814 73.0689 231.366 73.5167 230.814 73.5167H223.232C222.68 73.5167 222.232 73.0689 222.232 72.5167V32.8844C222.232 32.3321 222.68 31.8844 223.232 31.8844H230.814C231.366 31.8844 231.814 32.3321 231.814 32.8844V46.7443C231.814 47.2966 232.262 47.7443 232.814 47.7443H246.674C247.226 47.7443 247.674 47.2966 247.674 46.7443V32.8844C247.674 32.3321 248.122 31.8844 248.674 31.8844H256.256Z" fill="black"/>
<path d="M205.025 72.5167C205.025 73.0689 204.577 73.5167 204.025 73.5167H196.443C195.89 73.5167 195.443 73.0689 195.443 72.5167V42.136C195.443 41.5837 194.995 41.136 194.443 41.136H184.548C183.996 41.136 183.548 40.6883 183.548 40.136V32.8844C183.548 32.3321 183.996 31.8844 184.548 31.8844H215.92C216.472 31.8844 216.92 32.3321 216.92 32.8844V40.136C216.92 40.6883 216.472 41.136 215.92 41.136H206.025C205.473 41.136 205.025 41.5837 205.025 42.136V72.5167Z" fill="black"/>
</svg>
